# xmcd CD database file
#
# Track frame offsets:
#	150
#	17600
#	36095
#
# Disc length: 737 seconds
#
# Revision: 0
# Processed by: cddbd v1.5.1PL0 Copyright (c) Steve Scherf et al.
# Submitted via: CDex 1.51
#
DISCID=1802df03
DTITLE=マシコタツロウ - 三度目の夏子
DYEAR=2005
DGENRE=JPop
TTITLE0=三度目の夏子
TTITLE1=撫でてて
TTITLE2=手のひら
EXTD=YEAR: 2005
EXTT0=
EXTT1=
EXTT2=
PLAYORDER=
